<svg width="30" height="30" viewBox="0 0 30 30" fill="none" xmlns="http://www.w3.org/2000/svg">
<path d="M7.125 11.9824V18.7676C7.125 19.6699 6.41602 20.3906 5.51367 20.3906C4.61719 20.3906 3.75 19.6641 3.75 18.7676V11.9824C3.75 11.0977 4.61719 10.3711 5.51367 10.3711C6.39844 10.3711 7.125 11.0977 7.125 11.9824ZM7.75781 21.1816C7.75781 22.1426 8.53125 22.916 9.49219 22.916H10.6582L10.6758 26.4961C10.6758 28.6582 13.9102 28.6406 13.9102 26.4961V22.916H16.0898V26.4961C16.0898 28.6465 19.3418 28.6523 19.3418 26.4961V22.916H20.5254C21.4746 22.916 22.248 22.1426 22.248 21.1816V10.6699H7.75781V21.1816ZM22.2891 10.1016H7.69336C7.69336 7.59375 9.19336 5.41406 11.4199 4.27734L10.3008 2.20898C10.1367 1.92187 10.5527 1.74023 10.6934 1.98633L11.8301 4.07226C13.875 3.16406 16.2246 3.21094 18.1758 4.07226L19.3066 1.99219C19.4531 1.74023 19.8633 1.92773 19.6992 2.21484L18.5801 4.27734C20.7891 5.41406 22.2891 7.59375 22.2891 10.1016ZM12.2871 6.84961C12.2871 6.51562 12.0176 6.23437 11.6719 6.23437C11.3379 6.23437 11.0742 6.51562 11.0742 6.84961C11.0742 7.18359 11.3437 7.46484 11.6719 7.46484C12.0176 7.46484 12.2871 7.18359 12.2871 6.84961ZM18.9316 6.84961C18.9316 6.51562 18.6621 6.23437 18.334 6.23437C17.9883 6.23437 17.7187 6.51562 17.7187 6.84961C17.7187 7.18359 17.9883 7.46484 18.334 7.46484C18.6621 7.46484 18.9316 7.18359 18.9316 6.84961ZM24.4863 10.3711C23.6016 10.3711 22.875 11.0801 22.875 11.9824V18.7676C22.875 19.6699 23.6016 20.3906 24.4863 20.3906C25.3887 20.3906 26.25 19.6641 26.25 18.7676V11.9824C26.25 11.0801 25.3828 10.3711 24.4863 10.3711Z" fill="#2E2E2E"/>
</svg>
