<svg width="31" height="31" viewBox="0 0 31 31" fill="none" xmlns="http://www.w3.org/2000/svg">
<g clip-path="url(#clip0_99_103)">
<path d="M15.859 7.91138L16.3922 6.99145C16.7203 6.41724 17.4528 6.22388 18.027 6.552C18.6012 6.88013 18.7946 7.61255 18.4664 8.18677L13.3395 17.0637H17.0485C18.2496 17.0637 18.9235 18.4758 18.402 19.4543H7.53284C6.87073 19.4543 6.33752 18.9211 6.33752 18.259C6.33752 17.5969 6.87073 17.0637 7.53284 17.0637H10.5797L14.4821 10.302L13.2633 8.18677C12.9352 7.61255 13.1285 6.88599 13.7028 6.552C14.277 6.22388 15.0035 6.41724 15.3375 6.99145L15.859 7.91138ZM11.2477 20.6848L10.0992 22.677C9.77112 23.2512 9.0387 23.4446 8.46448 23.1165C7.89026 22.7883 7.6969 22.0559 8.02502 21.4817L8.88049 20.0051C9.84143 19.7063 10.6266 19.9348 11.2477 20.6848ZM21.1442 17.0696H24.2555C24.9176 17.0696 25.4508 17.6028 25.4508 18.2649C25.4508 18.927 24.9176 19.4602 24.2555 19.4602H22.527L23.693 21.4817C24.0211 22.0559 23.8278 22.7825 23.2535 23.1165C22.6793 23.4446 21.9528 23.2512 21.6188 22.677C19.6559 19.2727 18.1793 16.7239 17.2008 15.0247C16.1989 13.2961 16.9137 11.5618 17.6227 10.9758C18.4078 12.3235 19.5797 14.3567 21.1442 17.0696ZM15.8649 1.29614C7.83752 1.29614 1.33362 7.80005 1.33362 15.8274C1.33362 23.8547 7.83752 30.3586 15.8649 30.3586C23.8922 30.3586 30.3961 23.8547 30.3961 15.8274C30.3961 7.80005 23.8922 1.29614 15.8649 1.29614ZM28.5211 15.8274C28.5211 22.7825 22.8903 28.4836 15.8649 28.4836C8.90979 28.4836 3.20862 22.8528 3.20862 15.8274C3.20862 8.87231 8.83948 3.17114 15.8649 3.17114C22.8199 3.17114 28.5211 8.802 28.5211 15.8274Z" fill="url(#paint0_linear_99_103)"/>
</g>
<defs>
<linearGradient id="paint0_linear_99_103" x1="15.8649" y1="1.29614" x2="15.8649" y2="30.3586" gradientUnits="userSpaceOnUse">
<stop stop-color="#FFD700"/>
<stop offset="0.52" stop-color="#FFB90F"/>
<stop offset="1" stop-color="#FFFACD"/>
<stop offset="1" stop-color="#FFD700"/>
</linearGradient>
<clipPath id="clip0_99_103">
<rect width="30" height="30" fill="white" transform="translate(0.864868 0.827393)"/>
</clipPath>
</defs>
</svg>
