<svg width="30" height="30" viewBox="0 0 30 30" fill="none" xmlns="http://www.w3.org/2000/svg">
<path d="M22.4238 15.7441C22.4121 13.5938 23.3848 11.9707 25.3535 10.7754C24.252 9.19922 22.5879 8.33203 20.3906 8.16211C18.3105 7.99805 16.0371 9.375 15.2051 9.375C14.3262 9.375 12.3105 8.2207 10.7285 8.2207C7.45898 8.27344 3.98438 10.8281 3.98438 16.0254C3.98438 17.5605 4.26562 19.1465 4.82812 20.7832C5.57812 22.9336 8.28516 28.207 11.1094 28.1191C12.5859 28.084 13.6289 27.0703 15.5508 27.0703C17.4141 27.0703 18.3809 28.1191 20.0273 28.1191C22.875 28.0781 25.3242 23.2852 26.0391 21.1289C22.2188 19.3301 22.4238 15.8555 22.4238 15.7441ZM19.1074 6.12305C20.707 4.22461 20.5605 2.49609 20.5137 1.875C19.1016 1.95703 17.4668 2.83594 16.5352 3.91992C15.5098 5.08008 14.9062 6.51562 15.0352 8.13281C16.5645 8.25 17.959 7.46484 19.1074 6.12305Z" fill="url(#paint0_linear_19_252)"/>
<defs>
<linearGradient id="paint0_linear_19_252" x1="15.0117" y1="1.875" x2="15.0117" y2="28.1202" gradientUnits="userSpaceOnUse">
<stop stop-color="#FFD700"/>
<stop offset="0.52" stop-color="#FFB90F"/>
<stop offset="1" stop-color="#FFFACD"/>
<stop offset="1" stop-color="#FFD700"/>
</linearGradient>
</defs>
</svg>
