<svg width="25" height="26" viewBox="0 0 25 26" fill="none" xmlns="http://www.w3.org/2000/svg">
<g clip-path="url(#clip0_7_29)">
<path d="M1.5625 23.1562C1.5625 24.4502 2.6123 25.5 3.90625 25.5H21.0938C22.3877 25.5 23.4375 24.4502 23.4375 23.1562V9.875H1.5625V23.1562ZM17.1875 13.5859C17.1875 13.2637 17.4512 13 17.7734 13H19.7266C20.0488 13 20.3125 13.2637 20.3125 13.5859V15.5391C20.3125 15.8613 20.0488 16.125 19.7266 16.125H17.7734C17.4512 16.125 17.1875 15.8613 17.1875 15.5391V13.5859ZM17.1875 19.8359C17.1875 19.5137 17.4512 19.25 17.7734 19.25H19.7266C20.0488 19.25 20.3125 19.5137 20.3125 19.8359V21.7891C20.3125 22.1113 20.0488 22.375 19.7266 22.375H17.7734C17.4512 22.375 17.1875 22.1113 17.1875 21.7891V19.8359ZM10.9375 13.5859C10.9375 13.2637 11.2012 13 11.5234 13H13.4766C13.7988 13 14.0625 13.2637 14.0625 13.5859V15.5391C14.0625 15.8613 13.7988 16.125 13.4766 16.125H11.5234C11.2012 16.125 10.9375 15.8613 10.9375 15.5391V13.5859ZM10.9375 19.8359C10.9375 19.5137 11.2012 19.25 11.5234 19.25H13.4766C13.7988 19.25 14.0625 19.5137 14.0625 19.8359V21.7891C14.0625 22.1113 13.7988 22.375 13.4766 22.375H11.5234C11.2012 22.375 10.9375 22.1113 10.9375 21.7891V19.8359ZM4.6875 13.5859C4.6875 13.2637 4.95117 13 5.27344 13H7.22656C7.54883 13 7.8125 13.2637 7.8125 13.5859V15.5391C7.8125 15.8613 7.54883 16.125 7.22656 16.125H5.27344C4.95117 16.125 4.6875 15.8613 4.6875 15.5391V13.5859ZM4.6875 19.8359C4.6875 19.5137 4.95117 19.25 5.27344 19.25H7.22656C7.54883 19.25 7.8125 19.5137 7.8125 19.8359V21.7891C7.8125 22.1113 7.54883 22.375 7.22656 22.375H5.27344C4.95117 22.375 4.6875 22.1113 4.6875 21.7891V19.8359ZM21.0938 3.625H18.75V1.28125C18.75 0.851562 18.3984 0.5 17.9688 0.5H16.4062C15.9766 0.5 15.625 0.851562 15.625 1.28125V3.625H9.375V1.28125C9.375 0.851562 9.02344 0.5 8.59375 0.5H7.03125C6.60156 0.5 6.25 0.851562 6.25 1.28125V3.625H3.90625C2.6123 3.625 1.5625 4.6748 1.5625 5.96875V8.3125H23.4375V5.96875C23.4375 4.6748 22.3877 3.625 21.0938 3.625Z" fill="url(#paint0_linear_7_29)"/>
</g>
<defs>
<linearGradient id="paint0_linear_7_29" x1="12.5" y1="0.5" x2="12.5" y2="25.5" gradientUnits="userSpaceOnUse">
<stop stop-color="#FFD700"/>
<stop offset="0.52" stop-color="#FFB90F"/>
<stop offset="1" stop-color="#FFFACD"/>
<stop offset="1" stop-color="#FFD700"/>
</linearGradient>
<clipPath id="clip0_7_29">
<rect width="25" height="25" fill="white" transform="translate(0 0.5)"/>
</clipPath>
</defs>
</svg>
