<svg width="30" height="30" viewBox="0 0 30 30" fill="none" xmlns="http://www.w3.org/2000/svg">
<path d="M19.9805 10.002C21.3068 10.002 22.5788 9.47507 23.5167 8.5372C24.4546 7.59934 24.9814 6.32732 24.9814 5.00098C24.9814 3.67464 24.4546 2.40262 23.5167 1.46475C22.5788 0.526887 21.3068 0 19.9805 0L9.97852 0C8.65295 0 7.38168 0.526578 6.44436 1.46389C5.50705 2.40121 4.98047 3.67248 4.98047 4.99805C4.98047 6.32361 5.50705 7.59488 6.44436 8.5322C7.38168 9.46952 8.65295 9.99609 9.97852 9.99609C8.65218 9.99609 7.38016 10.523 6.44229 11.4608C5.50443 12.3987 4.97754 13.6707 4.97754 14.9971C4.97754 16.3234 5.50443 17.5954 6.44229 18.5333C7.38016 19.4712 8.65218 19.998 9.97852 19.998C8.98942 19.9975 8.02236 20.2902 7.19963 20.8392C6.3769 21.3883 5.73546 22.1689 5.35641 23.0825C4.97736 23.9961 4.87774 25.0016 5.07013 25.9718C5.26253 26.942 5.7383 27.8334 6.43729 28.5332C7.13628 29.233 8.02709 29.7098 8.99707 29.9033C9.96705 30.0969 10.9726 29.9984 11.8867 29.6204C12.8007 29.2425 13.5821 28.6019 14.1321 27.7799C14.6821 26.9578 14.976 25.9911 14.9766 25.002V10.002H19.9805ZM19.9805 10.002C18.992 10.002 18.0256 10.2951 17.2037 10.8443C16.3818 11.3935 15.7412 12.1741 15.3629 13.0873C14.9846 14.0006 14.8856 15.0055 15.0785 15.9751C15.2713 16.9446 15.7473 17.8352 16.4463 18.5342C17.1453 19.2331 18.0359 19.7092 19.0054 19.902C19.9749 20.0949 20.9799 19.9959 21.8931 19.6176C22.8064 19.2393 23.587 18.5987 24.1362 17.7768C24.6854 16.9548 24.9785 15.9885 24.9785 15C24.9784 13.6745 24.4517 12.4033 23.5145 11.466C22.5772 10.5287 21.306 10.0021 19.9805 10.002Z" fill="url(#paint0_linear_33_108)"/>
<defs>
<linearGradient id="paint0_linear_33_108" x1="14.978" y1="0" x2="14.978" y2="30" gradientUnits="userSpaceOnUse">
<stop stop-color="#FFD700"/>
<stop offset="0.52" stop-color="#FFB90F"/>
<stop offset="1" stop-color="#FFFACD"/>
<stop offset="1" stop-color="#FFD700"/>
</linearGradient>
</defs>
</svg>
