<svg width="30" height="30" viewBox="0 0 30 30" fill="none" xmlns="http://www.w3.org/2000/svg">
<g clip-path="url(#clip0_19_314)">
<path d="M15 0.46875C6.97441 0.46875 0.46875 6.97441 0.46875 15C0.46875 23.0256 6.97441 29.5312 15 29.5312C23.0256 29.5312 29.5312 23.0256 29.5312 15C29.5312 6.97441 23.0256 0.46875 15 0.46875ZM19.8217 21.4219C19.5932 21.6492 19.3535 21.8877 19.159 22.0828C18.9838 22.2586 18.8602 22.4754 18.7975 22.7104C18.709 23.042 18.6375 23.3771 18.518 23.6988L17.499 26.4439C16.6928 26.6197 15.8584 26.7188 15 26.7188V25.1145C15.099 24.375 14.5523 22.9898 13.674 22.1115C13.3225 21.76 13.125 21.283 13.125 20.7855V18.91C13.125 18.2279 12.7576 17.601 12.1605 17.2711C11.3186 16.8053 10.1209 16.1543 9.30059 15.7412C8.62793 15.4025 8.00566 14.9713 7.44609 14.4668L7.39922 14.4246C6.99906 14.0634 6.64378 13.6554 6.34102 13.2094C5.79141 12.4025 4.89609 11.0754 4.31426 10.2129C5.51367 7.54688 7.6752 5.40586 10.3611 4.24277L11.768 4.94648C12.3914 5.2582 13.125 4.80527 13.125 4.10801V3.4459C13.5932 3.37031 14.0695 3.32227 14.5541 3.3041L16.2123 4.96231C16.5785 5.32852 16.5785 5.92207 16.2123 6.28828L15.9375 6.5625L15.3316 7.16836C15.1488 7.35117 15.1488 7.64824 15.3316 7.83105L15.6064 8.10586C15.7893 8.28867 15.7893 8.58574 15.6064 8.76855L15.1377 9.2373C15.0497 9.32515 14.9304 9.37446 14.8061 9.37441H14.2793C14.1574 9.37441 14.0402 9.42188 13.9523 9.50742L13.3711 10.0729C13.2998 10.1422 13.2525 10.2325 13.2358 10.3305C13.2192 10.4286 13.2341 10.5294 13.2785 10.6184L14.192 12.4459C14.3479 12.7576 14.1211 13.1244 13.773 13.1244H13.4426C13.3295 13.1244 13.2205 13.0834 13.1355 13.0096L12.5918 12.5373C12.4688 12.4306 12.32 12.3577 12.1603 12.3258C12.0005 12.294 11.8352 12.3043 11.6807 12.3557L9.8543 12.9645C9.71486 13.0109 9.59359 13.1001 9.50767 13.2194C9.42175 13.3387 9.37554 13.4819 9.37559 13.6289C9.37559 13.8943 9.52559 14.1363 9.76289 14.2553L10.4121 14.5799C10.9635 14.8559 11.5717 14.9994 12.1881 14.9994C12.8045 14.9994 13.5117 16.5984 14.0631 16.8744H17.9742C18.4717 16.8744 18.948 17.0719 19.3002 17.4234L20.1023 18.2256C20.4375 18.5608 20.6257 19.0154 20.6256 19.4895C20.6255 19.8486 20.5544 20.2042 20.4164 20.5359C20.2785 20.8675 20.0763 21.1686 19.8217 21.4219ZM24.9023 16.0693C24.5631 15.9844 24.2672 15.7764 24.0732 15.4852L23.0197 13.9049C22.8656 13.674 22.7833 13.4026 22.7833 13.125C22.7833 12.8474 22.8656 12.576 23.0197 12.3451L24.1676 10.6236C24.3035 10.4203 24.4898 10.2551 24.709 10.1461L25.4695 9.76582C26.2617 11.3432 26.7188 13.1174 26.7188 15C26.7188 15.508 26.6754 16.0055 26.6121 16.4965L24.9023 16.0693Z" fill="url(#paint0_linear_19_314)"/>
</g>
<defs>
<linearGradient id="paint0_linear_19_314" x1="15" y1="0.46875" x2="15" y2="29.5312" gradientUnits="userSpaceOnUse">
<stop stop-color="#FFD700"/>
<stop offset="0.52" stop-color="#FFB90F"/>
<stop offset="1" stop-color="#FFFACD"/>
<stop offset="1" stop-color="#FFD700"/>
</linearGradient>
<clipPath id="clip0_19_314">
<rect width="30" height="30" fill="white"/>
</clipPath>
</defs>
</svg>
