<svg width="25" height="26" viewBox="0 0 25 26" fill="none" xmlns="http://www.w3.org/2000/svg">
<g clip-path="url(#clip0_9_71)">
<path d="M24.4141 13.2832C24.4141 20.1924 19.6826 25.1094 12.6953 25.1094C5.99609 25.1094 0.585938 19.6992 0.585938 13C0.585938 6.30078 5.99609 0.890625 12.6953 0.890625C15.957 0.890625 18.7012 2.08691 20.8154 4.05957L17.5195 7.22852C13.208 3.06836 5.19043 6.19336 5.19043 13C5.19043 17.2236 8.56445 20.6465 12.6953 20.6465C17.4902 20.6465 19.2871 17.209 19.5703 15.4268H12.6953V11.2617H24.2236C24.3359 11.8818 24.4141 12.4775 24.4141 13.2832Z" fill="url(#paint0_linear_9_71)"/>
</g>
<defs>
<linearGradient id="paint0_linear_9_71" x1="12.5" y1="0.890625" x2="12.5" y2="25.1094" gradientUnits="userSpaceOnUse">
<stop stop-color="#FFD700"/>
<stop offset="0.52" stop-color="#FFB90F"/>
<stop offset="1" stop-color="#FFFACD"/>
<stop offset="1" stop-color="#FFD700"/>
</linearGradient>
<clipPath id="clip0_9_71">
<rect width="25" height="25" fill="white" transform="translate(0 0.5)"/>
</clipPath>
</defs>
</svg>
