<svg width="25" height="26" viewBox="0 0 25 26" fill="none" xmlns="http://www.w3.org/2000/svg">
<g clip-path="url(#clip0_7_33)">
<path d="M11.5365 24.9956C4.44189 14.7105 3.125 13.6549 3.125 9.875C3.125 4.69731 7.32231 0.5 12.5 0.5C17.6777 0.5 21.875 4.69731 21.875 9.875C21.875 13.6549 20.5581 14.7105 13.4635 24.9956C12.9979 25.6682 12.0021 25.6681 11.5365 24.9956ZM12.5 13.7812C14.6574 13.7812 16.4062 12.0324 16.4062 9.875C16.4062 7.71763 14.6574 5.96875 12.5 5.96875C10.3426 5.96875 8.59375 7.71763 8.59375 9.875C8.59375 12.0324 10.3426 13.7812 12.5 13.7812Z" fill="url(#paint0_linear_7_33)"/>
</g>
<defs>
<linearGradient id="paint0_linear_7_33" x1="12.5" y1="0.5" x2="12.5" y2="25.5" gradientUnits="userSpaceOnUse">
<stop stop-color="#FFD700"/>
<stop offset="0.52" stop-color="#FFB90F"/>
<stop offset="1" stop-color="#FFFACD"/>
<stop offset="1" stop-color="#FFD700"/>
</linearGradient>
<clipPath id="clip0_7_33">
<rect width="25" height="25" fill="white" transform="translate(0 0.5)"/>
</clipPath>
</defs>
</svg>
