<svg width="30" height="30" viewBox="0 0 30 30" fill="none" xmlns="http://www.w3.org/2000/svg">
<path d="M28.125 9.375H1.875C0.839473 9.375 0 8.53553 0 7.5V3.75C0 2.71447 0.839473 1.875 1.875 1.875H28.125C29.1605 1.875 30 2.71447 30 3.75V7.5C30 8.53553 29.1605 9.375 28.125 9.375ZM25.3125 4.21875C24.5358 4.21875 23.9062 4.84834 23.9062 5.625C23.9062 6.40166 24.5358 7.03125 25.3125 7.03125C26.0892 7.03125 26.7188 6.40166 26.7188 5.625C26.7188 4.84834 26.0892 4.21875 25.3125 4.21875ZM21.5625 4.21875C20.7858 4.21875 20.1562 4.84834 20.1562 5.625C20.1562 6.40166 20.7858 7.03125 21.5625 7.03125C22.3392 7.03125 22.9688 6.40166 22.9688 5.625C22.9688 4.84834 22.3392 4.21875 21.5625 4.21875ZM28.125 18.75H1.875C0.839473 18.75 0 17.9105 0 16.875V13.125C0 12.0895 0.839473 11.25 1.875 11.25H28.125C29.1605 11.25 30 12.0895 30 13.125V16.875C30 17.9105 29.1605 18.75 28.125 18.75ZM25.3125 13.5938C24.5358 13.5938 23.9062 14.2233 23.9062 15C23.9062 15.7767 24.5358 16.4062 25.3125 16.4062C26.0892 16.4062 26.7188 15.7767 26.7188 15C26.7188 14.2233 26.0892 13.5938 25.3125 13.5938ZM21.5625 13.5938C20.7858 13.5938 20.1562 14.2233 20.1562 15C20.1562 15.7767 20.7858 16.4062 21.5625 16.4062C22.3392 16.4062 22.9688 15.7767 22.9688 15C22.9688 14.2233 22.3392 13.5938 21.5625 13.5938ZM28.125 28.125H1.875C0.839473 28.125 0 27.2855 0 26.25V22.5C0 21.4645 0.839473 20.625 1.875 20.625H28.125C29.1605 20.625 30 21.4645 30 22.5V26.25C30 27.2855 29.1605 28.125 28.125 28.125ZM25.3125 22.9688C24.5358 22.9688 23.9062 23.5983 23.9062 24.375C23.9062 25.1517 24.5358 25.7812 25.3125 25.7812C26.0892 25.7812 26.7188 25.1517 26.7188 24.375C26.7188 23.5983 26.0892 22.9688 25.3125 22.9688ZM21.5625 22.9688C20.7858 22.9688 20.1562 23.5983 20.1562 24.375C20.1562 25.1517 20.7858 25.7812 21.5625 25.7812C22.3392 25.7812 22.9688 25.1517 22.9688 24.375C22.9688 23.5983 22.3392 22.9688 21.5625 22.9688Z" fill="url(#paint0_linear_19_310)"/>
<defs>
<linearGradient id="paint0_linear_19_310" x1="15" y1="1.875" x2="15" y2="28.125" gradientUnits="userSpaceOnUse">
<stop stop-color="#FFD700"/>
<stop offset="0.52" stop-color="#FFB90F"/>
<stop offset="1" stop-color="#FFFACD"/>
<stop offset="1" stop-color="#FFD700"/>
</linearGradient>
</defs>
</svg>
